<!--?xml version="1.0" encoding="utf-8"?-->
<!-- Svg Vector Icons : http://www.onlinewebfonts.com/icon -->

<svg version="1.1" xmlns="http://www.w3.org/2000/svg" xmlns:xlink="http://www.w3.org/1999/xlink" x="0px" y="0px" viewBox="0 0 256 256" enable-background="new 0 0 256 256" xml:space="preserve">
<metadata> Svg Vector Icons : http://www.onlinewebfonts.com/icon </metadata>
<g><g><g><g><path fill="#009900" data-title="Layer 0" xs="0" d="M231,29.2c0.7,0,1.2-0.5,1.2-1.2l0.3-12.6c0-0.7-0.5-1.2-1.2-1.2c-0.7,0-1.2,0.5-1.2,1.2L229.9,28c0,0.3,0.1,0.6,0.3,0.8C230.4,29.1,230.7,29.2,231,29.2z"/><path fill="#009900" data-title="Layer 1" xs="1" d="M227.8,32.2l0.3-12.6c0-0.7-0.5-1.2-1.2-1.2c-0.7,0-1.2,0.5-1.2,1.2l-0.3,12.6c0,0.3,0.1,0.6,0.3,0.8s0.5,0.4,0.8,0.4C227.2,33.4,227.8,32.8,227.8,32.2z"/><path fill="#009900" data-title="Layer 2" xs="2" d="M223.3,36.3l0.3-12.6c0-0.7-0.5-1.2-1.2-1.2c-0.7,0-1.2,0.5-1.2,1.2l-0.3,12.6c0,0.3,0.1,0.6,0.3,0.8c0.2,0.2,0.5,0.4,0.8,0.4C222.7,37.5,223.3,37,223.3,36.3z"/><path fill="#009900" data-title="Layer 3" xs="3" d="M218.8,40.4l0.3-12.6c0-0.7-0.5-1.2-1.2-1.2c-0.7,0-1.2,0.5-1.2,1.2l-0.3,12.6c0,0.3,0.1,0.6,0.3,0.8c0.2,0.2,0.5,0.4,0.8,0.4C218.2,41.6,218.8,41,218.8,40.4z"/><path fill="#009900" data-title="Layer 4" xs="4" d="M214.3,44.5l0.3-12.6c0-0.7-0.5-1.2-1.2-1.2s-1.2,0.5-1.2,1.2l-0.3,12.6c0,0.3,0.1,0.6,0.3,0.8c0.2,0.2,0.5,0.4,0.8,0.4C213.8,45.7,214.3,45.2,214.3,44.5z"/><path fill="#009900" data-title="Layer 5" xs="5" d="M209.8,48.6l0.3-12.6c0-0.6-0.5-1.2-1.2-1.2c-0.7,0-1.2,0.5-1.2,1.2l-0.3,12.6c0,0.3,0.1,0.6,0.3,0.8c0.2,0.2,0.5,0.4,0.8,0.4C209.3,49.8,209.8,49.3,209.8,48.6z"/><path fill="#009900" data-title="Layer 6" xs="6" d="M205.4,52.7l0.3-12.6c0-0.7-0.5-1.2-1.2-1.2c-0.7,0-1.2,0.5-1.2,1.2L203,52.6c0,0.3,0.1,0.6,0.3,0.8c0.2,0.2,0.5,0.4,0.8,0.4C204.8,53.9,205.3,53.4,205.4,52.7z"/><path fill="#009900" data-title="Layer 7" xs="7" d="M70.1,227.4L69.9,240c0,0.3,0.1,0.6,0.3,0.8c0.2,0.2,0.5,0.4,0.8,0.4c0.7,0,1.2-0.5,1.2-1.2l0.3-12.6c0-0.7-0.5-1.2-1.2-1.2C70.7,226.2,70.1,226.7,70.1,227.4z"/><path fill="#009900" data-title="Layer 8" xs="8" d="M74.6,223.3l-0.3,12.6c0,0.3,0.1,0.6,0.3,0.8c0.2,0.2,0.5,0.4,0.8,0.4c0.7,0,1.2-0.5,1.2-1.2l0.3-12.6c0-0.7-0.5-1.2-1.2-1.2C75.2,222.1,74.6,222.6,74.6,223.3z"/><path fill="#009900" data-title="Layer 9" xs="9" d="M81.2,231.8l0.3-12.6c0-0.7-0.5-1.2-1.2-1.2s-1.2,0.5-1.2,1.2l-0.3,12.6c0,0.3,0.1,0.6,0.3,0.8c0.2,0.2,0.5,0.4,0.8,0.4C80.6,233,81.2,232.5,81.2,231.8z"/><path fill="#009900" data-title="Layer 10" xs="10" d="M85.7,227.8l0.3-12.6c0-0.7-0.5-1.2-1.2-1.2c-0.7,0-1.2,0.5-1.2,1.2l-0.3,12.6c0,0.3,0.1,0.6,0.3,0.8c0.2,0.2,0.5,0.4,0.8,0.4C85.1,228.9,85.7,228.4,85.7,227.8z"/><path fill="#009900" data-title="Layer 11" xs="11" d="M90.2,223.7l0.3-12.6c0-0.7-0.5-1.2-1.2-1.2c-0.6,0-1.2,0.5-1.2,1.2l-0.3,12.7c0,0.3,0.1,0.6,0.3,0.8c0.2,0.2,0.5,0.4,0.8,0.4C89.6,224.8,90.1,224.3,90.2,223.7z"/><path fill="#009900" data-title="Layer 12" xs="12" d="M94.6,219.5l0.3-12.6c0-0.7-0.5-1.2-1.2-1.2c-0.7,0-1.2,0.5-1.2,1.2l-0.3,12.6c0,0.3,0.1,0.6,0.3,0.8c0.2,0.2,0.5,0.4,0.8,0.4C94.1,220.7,94.6,220.2,94.6,219.5z"/><path fill="#009900" data-title="Layer 13" xs="13" d="M99.1,215.4l0.3-12.6c0-0.7-0.5-1.2-1.2-1.2c-0.7,0-1.2,0.5-1.2,1.2l-0.3,12.6c0,0.3,0.1,0.6,0.3,0.8c0.2,0.2,0.5,0.4,0.8,0.4C98.6,216.6,99.1,216.1,99.1,215.4z"/><path fill="#009900" data-title="Layer 14" xs="14" d="M200.9,56.8l0.3-12.6c0-0.6-0.5-1.2-1.2-1.2c-0.7,0-1.2,0.5-1.2,1.2l-0.3,12.6c0,0.3,0.1,0.6,0.3,0.8c0.2,0.2,0.5,0.4,0.8,0.4C200.3,58,200.8,57.5,200.9,56.8z"/><path fill="#009900" data-title="Layer 15" xs="15" d="M196.4,60.9l0.3-12.6c0-0.6-0.5-1.2-1.2-1.2s-1.2,0.5-1.2,1.2L194,60.8c0,0.3,0.1,0.6,0.3,0.8c0.2,0.2,0.5,0.4,0.9,0.4C195.8,62.1,196.4,61.6,196.4,60.9z"/><path fill="#009900" data-title="Layer 16" xs="16" d="M191.9,65l0.3-12.6c0-0.6-0.5-1.2-1.2-1.2c-0.7,0-1.2,0.5-1.2,1.2L189.5,65c0,0.3,0.1,0.6,0.3,0.8c0.2,0.2,0.5,0.4,0.9,0.4C191.3,66.2,191.9,65.7,191.9,65z"/><path fill="#009900" data-title="Layer 17" xs="17" d="M187.4,69.1l0.3-12.6c0-0.6-0.5-1.2-1.2-1.2c-0.6,0-1.2,0.5-1.2,1.2l-0.3,12.6c0,0.3,0.1,0.6,0.3,0.8c0.2,0.2,0.5,0.4,0.9,0.4C186.9,70.3,187.4,69.8,187.4,69.1z"/><path fill="#009900" data-title="Layer 18" xs="18" d="M183,73.2l0.3-12.6c0-0.6-0.5-1.2-1.2-1.2c-0.7,0-1.2,0.5-1.2,1.2l-0.3,12.6c0,0.3,0.1,0.6,0.3,0.8c0.2,0.2,0.5,0.4,0.9,0.4C182.4,74.4,182.9,73.9,183,73.2z"/><path fill="#009900" data-title="Layer 19" xs="19" d="M178.5,77.3l0.3-12.6c0-0.7-0.5-1.2-1.2-1.2c-0.7,0-1.2,0.5-1.2,1.2l-0.3,12.6c0,0.3,0.1,0.6,0.3,0.8c0.2,0.2,0.5,0.4,0.9,0.4C177.9,78.5,178.5,78,178.5,77.3z"/><path fill="#009900" data-title="Layer 20" xs="20" d="M174,81.4l0.3-12.6c0-0.7-0.5-1.2-1.2-1.2c-0.7,0-1.2,0.5-1.2,1.2l-0.3,12.6c0,0.3,0.1,0.6,0.3,0.8c0.2,0.2,0.5,0.4,0.8,0.4C173.4,82.6,174,82.1,174,81.4z"/><path fill="#009900" data-title="Layer 21" xs="21" d="M169.5,85.5l0.3-12.6c0-0.7-0.5-1.2-1.2-1.2c-0.6,0-1.2,0.5-1.2,1.2l-0.3,12.6c0,0.3,0.1,0.6,0.3,0.8c0.2,0.2,0.5,0.4,0.8,0.4C168.9,86.7,169.5,86.2,169.5,85.5z"/><path fill="#009900" data-title="Layer 22" xs="22" d="M165,89.6l0.3-12.6c0-0.7-0.5-1.2-1.2-1.2c-0.6,0-1.2,0.5-1.2,1.2l-0.3,12.6c0,0.3,0.1,0.6,0.3,0.8c0.2,0.2,0.5,0.4,0.8,0.4C164.5,90.8,165,90.3,165,89.6z"/><path fill="#009900" data-title="Layer 23" xs="23" d="M160.5,93.8l0.3-12.6c0-0.6-0.5-1.2-1.2-1.2c-0.6,0-1.2,0.5-1.2,1.2l-0.3,12.6c0,0.3,0.1,0.6,0.3,0.8c0.2,0.2,0.5,0.4,0.8,0.4C160,94.9,160.5,94.4,160.5,93.8z"/><path fill="#009900" data-title="Layer 24" xs="24" d="M156.1,97.9l0.3-12.6c0-0.7-0.5-1.2-1.2-1.2c-0.7,0-1.2,0.5-1.2,1.2l-0.3,12.6c0,0.3,0.1,0.6,0.3,0.8c0.2,0.2,0.5,0.4,0.8,0.4C155.5,99,156,98.5,156.1,97.9z"/><path fill="#009900" data-title="Layer 25" xs="25" d="M151.6,101.9l0.3-12.6c0-0.7-0.5-1.2-1.2-1.2c-0.7,0-1.2,0.5-1.2,1.2l-0.3,12.6c0,0.3,0.1,0.6,0.3,0.8c0.2,0.2,0.5,0.4,0.8,0.4C151,103.1,151.6,102.6,151.6,101.9z"/><path fill="#009900" data-title="Layer 26" xs="26" d="M147.1,106.1l0.3-12.6c0-0.7-0.5-1.2-1.2-1.2c-0.6,0-1.2,0.5-1.2,1.2l-0.3,12.6c0,0.3,0.1,0.6,0.3,0.8c0.2,0.2,0.5,0.4,0.8,0.4C146.5,107.2,147.1,106.7,147.1,106.1z"/><path fill="#009900" data-title="Layer 27" xs="27" d="M142.6,110.2l0.3-12.6c0-0.6-0.5-1.2-1.2-1.2c-0.7,0-1.2,0.5-1.2,1.2l-0.3,12.6c0,0.3,0.1,0.6,0.3,0.8c0.2,0.2,0.5,0.4,0.8,0.4C142,111.3,142.6,110.8,142.6,110.2z"/><path fill="#009900" data-title="Layer 28" xs="28" d="M134.7,95.2L128,148c0,0.4,0.1,0.7,0.3,0.9c0.2,0.2,0.4,0.3,0.7,0.4c0.7,0.1,1.3-0.4,1.3-1l6.6-52.4l91.6-83.8c0.5-0.4,0.5-1.2,0.1-1.7c-0.4-0.5-1.2-0.5-1.7-0.1l-91.8,84.1C134.9,94.6,134.7,94.9,134.7,95.2z"/><path fill="#009900" data-title="Layer 29" xs="29" d="M25.2,245.1l91.8-84.1c0.6-0.6,1-1.3,1.1-2.2l6.6-52.9c0.2-2-1.1-3.8-3.1-4c-2-0.2-3.7,1.1-4,3.1l-6.5,51.6l-90.9,83.2c-1.4,1.3-1.6,3.6-0.2,5.1C21.5,246.3,23.8,246.4,25.2,245.1z"/><path fill="#009900" data-title="Layer 30" xs="30" d="M207.3,143c0-0.6-0.6-1.2-1.2-1.2l-53.3,2c-0.3,0-0.6,0.1-0.8,0.3l-91.8,84.1c-0.5,0.5-0.5,1.2-0.1,1.7c0.4,0.5,1.2,0.5,1.7,0.1l91.5-83.8l52.8-2C206.8,144.2,207.3,143.6,207.3,143z"/><path fill="#009900" data-title="Layer 31" xs="31" d="M236.8 30.4L141.8 117.3 137.7 144.5 232.6 57.6 z"/><path fill="#009900" data-title="Layer 32" xs="32" d="M154.3 152.1L106.8 195.6 106.1 219.6 153.6 176.1 z"/></g></g><g></g><g></g><g></g><g></g><g></g><g></g><g></g><g></g><g></g><g></g><g></g><g></g><g></g><g></g><g></g></g></g>
</svg>